HIERARCHY
ROOT pelvis
{
  OFFSET 0 100 0
  CHANNELS 6 Xposition Yposition Zposition Zrotation Xrotation Yrotation
  JOINT pelvis_right_femur
  {
    OFFSET -10.78128 -3.44521 -0.5502486
    CHANNELS 3 Zrotation Xrotation Yrotation
    JOINT right_femur_tibia
    {
      OFFSET -0.8047443 -44.0398 -0.1307829
      CHANNELS 3 Zrotation Xrotation Yrotation
      JOINT right_tibia_foot
      {
        OFFSET 3.006224 -47.83518 -5
        CHANNELS 3 Zrotation Xrotation Yrotation
        End Site
        {
          OFFSET 0 -5 15
        }
      }
    }
  }
  JOINT pelvis_left_femur
  {
    OFFSET 10.78128 -3.44521 -0.5502486
    CHANNELS 3 Zrotation Xrotation Yrotation
    JOINT left_femur_tibia
    {
      OFFSET 0.8047443 -44.0398 -0.1307829
      CHANNELS 3 Zrotation Xrotation Yrotation
      JOINT left_tibia_foot
      {
        OFFSET -4.370144 -48.10324 -4.275266
        CHANNELS 3 Zrotation Xrotation Yrotation
        End Site
        {
          OFFSET 0 -5 15
        }
      }
    }
  }
  JOINT pelvis_spine1
  {
    OFFSET 0 6.468898 -3.129235
    CHANNELS 3 Zrotation Xrotation Yrotation
    JOINT spine1
    {
      OFFSET 0 23.15396 4.99043
      CHANNELS 3 Zrotation Xrotation Yrotation
      JOINT spine2
      {
        OFFSET 0 20.79997 -5.064912
        CHANNELS 3 Zrotation Xrotation Yrotation
        JOINT neck
        {
          OFFSET 0 14.38658 9.616178
          CHANNELS 3 Zrotation Xrotation Yrotation
          End Site
          {
            OFFSET 0 20 0
          }
        }
      }
      JOINT right_manubrium
      {
        OFFSET -5.722621 16.35077 3.967754
        CHANNELS 3 Zrotation Xrotation Yrotation
        JOINT right_clavicle
        {
          OFFSET -13.16364 1.694482 -4.693211
          CHANNELS 3 Zrotation Xrotation Yrotation
          JOINT right_humerus
          {
            OFFSET -28.5034 -0.3100689 -2.792744
            CHANNELS 3 Zrotation Xrotation Yrotation
            JOINT right_radius
            {
              OFFSET -25.15693 0.02248979 -1.271978
              CHANNELS 3 Zrotation Xrotation Yrotation
              End Site
              {
                OFFSET -15 0 0
              }
            }
          }
        }
      }
      JOINT left_manubrium
      {
        OFFSET 5.722621 16.35077 3.967754
        CHANNELS 3 Zrotation Xrotation Yrotation
        JOINT left_clavicle
        {
          OFFSET 13.16364 1.694482 -4.693211
          CHANNELS 3 Zrotation Xrotation Yrotation
          JOINT left_humerus
          {
            OFFSET 29.39168 -1.063119 -2.237045
            CHANNELS 3 Zrotation Xrotation Yrotation
            JOINT left_radius
            {
              OFFSET 24.59957 -0.9528479 0.9047498
              CHANNELS 3 Zrotation Xrotation Yrotation
              End Site
              {
                OFFSET 15 -0 -0
              }
            }
          }
        }
      }
    }
  }
}
MOTION
Frames: 18
Frame Time: 0.0416666666667
31.74264 105.7676 242.0316 2.157292 -7.492773 3.891989 0.2193906 11.3507 7.66523 -2.92095e-06 37.10536 2.211453e-06 3.78442 -11.51772 -5.327613 -2.326504 -16.14344 -7.116338 -3.384095e-07 19.80075 -1.033452e-07 -4.506486 -9.303106 20.10338 -2.265905 -0.279718 8.046014 -0.9617782 10.66456 -3.913734 2.365411 22.15964 4.817839 1.277655 -16.7545 7.787267 3.23359 -21.05225 10.91935 82.0334 26.69993 -7.866132 -1.763191e-07 5.701902e-08 23.1703 -24.87369 14.57314 13.83823 3.551241 -15.64663 -3.258864 -92.94801 23.19325 24.90164 -2.183902e-07 -5.424952e-08 -9.761174 -1.089464 7.130911 16.48484
33.11197 106.2728 247.7267 2.313532 -7.933372 4.226348 -0.0812798 8.977425 7.871542 -2.924018e-06 43.74716 2.25886e-06 3.76737 -9.085528 -5.99274 -3.444204 -12.43399 -8.341963 -5.358448e-07 20.88488 5.716949e-08 -4.244316 -9.954023 20.04848 -2.477321 -0.3127122 7.431216 -1.012349 10.66733 -4.016426 2.469773 22.31505 4.969243 1.34154 -16.5849 8.050367 3.542418 -20.13381 10.75629 82.48756 26.64647 -8.737258 -1.039728e-07 4.748107e-08 21.78279 -24.16151 14.30649 13.11667 3.395386 -15.48045 -3.419757 -92.09411 23.81883 23.61618 -2.153157e-07 -4.988946e-08 -9.447154 -1.04232 7.287919 16.42948
34.44431 107.0925 253.24 2.504134 -8.39923 4.74945 -0.282952 5.353917 8.059808 -2.667797e-06 49.73272 2.118318e-06 3.943631 -7.128028 -6.910837 -4.509135 -7.616464 -9.625789 -6.671377e-07 20.95817 2.315928e-07 -3.887732 -11.16578 20.00712 -2.711492 -0.3398131 6.697827 -0.9972624 10.6283 -4.267896 2.621655 22.54178 5.100164 1.33092 -16.33746 8.41405 3.776665 -19.16472 10.55576 83.51748 26.44346 -10.10451 -2.954866e-08 6.017655e-08 20.36799 -23.33582 14.13603 12.24546 3.399288 -15.52353 -3.628854 -91.24796 24.49962 21.80561 -2.256956e-07 -3.541616e-08 -9.748337 -0.9583624 7.541411 16.28436
35.69096 108.0447 258.4742 2.607158 -8.662119 5.365359 -0.1575584 0.7528475 8.118133 -1.859698e-06 52.94657 1.500297e-06 3.850922 -6.285719 -7.78317 -5.288702 -2.23006 -10.91364 -7.303061e-07 20.31166 3.541472e-07 -3.401952 -12.63161 19.92136 -2.857238 -0.3553932 5.868422 -0.8394625 10.42054 -4.63123 2.781814 22.69642 5.137369 1.245285 -16.08485 8.755179 3.839046 -18.15723 10.28022 84.37621 26.12541 -11.65967 4.755095e-08 9.354137e-08 18.86136 -21.89378 13.84803 10.99776 3.570692 -15.72795 -3.786712 -90.00057 25.19661 19.53341 -2.433528e-07 -1.241387e-08 -10.57652 -0.6924179 8.098206 15.74229
36.85294 108.9097 263.5361 2.662336 -8.630365 6.027275 0.09077637 -4.065931 7.851019 -8.382641e-07 53.00349 7.003687e-07 3.662155 -5.987252 -8.439478 -5.71397 2.68002 -11.76615 -6.243077e-07 18.65797 4.475024e-07 -2.980946 -14.2958 19.71227 -2.95807 -0.3545828 5.111632 -0.6072938 10.17243 -5.071839 2.888067 22.82719 5.177555 1.172357 -15.95241 9.024547 3.739323 -17.32525 10.03454 85.39919 25.86344 -13.29381 9.817062e-08 1.285566e-07 17.44746 -20.75608 13.61576 9.989186 3.952908 -16.2412 -3.938359 -88.78824 25.59854 17.08633 -2.481843e-07 1.577259e-08 -12.15086 -0.2295002 8.680423 14.94127
37.91238 109.4637 268.4829 2.618418 -8.277312 6.654967 0.4681723 -8.859961 7.297516 2.661802e-07 49.49629 -1.400295e-07 3.241895 -6.502406 -8.809008 -5.797582 6.905128 -12.26965 -3.845039e-07 16.23197 4.968307e-07 -2.663821 -15.98907 19.36465 -2.979586 -0.3100604 4.414985 -0.2955539 9.775543 -5.521946 2.949814 22.87044 5.171813 1.093246 -15.87233 9.184673 3.455263 -16.57581 9.759668 86.06166 25.64876 -14.74734 1.292574e-07 1.652639e-07 16.06936 -19.63391 13.32066 9.071436 4.511898 -16.90182 -4.007101 -87.30283 25.77972 14.42066 -2.399403e-07 4.697886e-08 -14.22615 0.4099919 9.317988 13.83578
38.86357 109.58 273.465 2.506637 -7.69689 7.21132 0.8640589 -13.48518 6.461148 1.163237e-06 43.39644 -7.488504e-07 2.735724 -7.21752 -8.979078 -5.677281 10.41312 -12.31499 -4.387515e-08 13.9747 5.312872e-07 -2.642038 -17.62493 18.80695 -2.943742 -0.2082545 3.810709 0.05149912 9.341292 -5.984716 2.963813 22.92746 5.186123 1.060416 -15.89477 9.26172 3.078755 -15.86718 9.522167 86.82752 25.5794 -16.21864 1.414427e-07 1.940269e-07 14.59415 -18.90892 13.1042 8.430623 5.206517 -17.77725 -4.046796 -85.87975 25.701 11.58775 -2.113355e-07 7.783524e-08 -16.86828 1.189178 9.850106 12.59373
39.70177 109.201 278.5805 2.345131 -7.027788 7.664214 1.231983 -17.58696 5.48681 1.85416e-06 35.78647 -1.135329e-06 2.151835 -8.128953 -9.006272 -5.436777 13.13557 -12.06269 3.218301e-07 12.30223 5.455139e-07 -2.913679 -19.06052 18.14634 -2.857855 -0.0399237 3.301737 0.39472 8.864962 -6.391348 2.964216 23.04077 5.196918 1.058081 -15.96391 9.284404 2.655503 -15.17738 9.312009 87.61722 25.6159 -17.56294 1.458049e-07 2.13797e-07 13.08904 -18.45038 12.91684 7.984115 5.951625 -18.69842 -4.032025 -84.66191 25.50391 8.793095 -1.690961e-07 1.041355e-07 -19.65012 2.004423 10.29451 11.34588
40.39381 108.3714 283.7594 2.135666 -6.435383 7.990089 1.615867 -21.2104 4.602495 2.504865e-06 28.33345 -1.466028e-06 1.322313 -9.234147 -8.982912 -5.175825 15.60516 -11.95923 5.942195e-07 11.51439 5.253416e-07 -3.255851 -20.19464 17.54491 -2.723862 0.1709269 2.775979 0.721188 8.295165 -6.68402 2.9982 23.1789 5.146792 1.046005 -15.98149 9.287015 2.232232 -14.3794 9.061315 88.02313 25.64598 -18.63238 1.678824e-07 2.26581e-07 11.48301 -17.64636 12.51875 7.346497 6.621602 -19.40593 -3.939708 -83.37335 25.403 6.080802 -1.269373e-07 1.243648e-07 -21.9355 2.815931 10.84338 10.05794
40.94711 107.2513 289.0307 1.951431 -6.029534 8.205378 1.938162 -23.90352 3.865573 3.003119e-06 22.40704 -1.698187e-06 0.5034034 -9.911496 -8.965036 -4.985958 17.49251 -11.82524 7.495726e-07 12.29418 4.764967e-07 -3.763652 -20.87549 16.99626 -2.574753 0.3980445 2.342557 0.9703298 7.828511 -6.870048 3.046181 23.40548 5.10661 1.071769 -16.01982 9.286879 1.917907 -13.59711 8.875773 88.52619 25.72879 -19.54942 1.985646e-07 2.242655e-07 9.907063 -17.01423 12.13788 6.808348 7.130231 -19.96281 -3.856318 -82.49787 25.35798 3.825177 -8.447752e-08 1.354685e-07 -23.68345 3.514382 11.2954 9.00827
41.38432 106.0539 294.3604 1.815496 -5.885937 8.333011 2.234849 -25.43484 3.440909 3.353687e-06 19.03121 -1.886994e-06 -0.2552809 -10.13055 -8.968425 -4.893026 18.75208 -11.78603 7.473471e-07 14.50433 3.987517e-07 -4.250515 -20.99979 16.60871 -2.419693 0.5864989 2.029131 1.122557 7.529485 -6.93706 3.10603 23.64374 5.05779 1.112744 -16.05301 9.281153 1.747648 -12.93027 8.763058 88.9232 25.79431 -20.19211 2.380687e-07 2.110397e-07 8.576355 -16.43032 11.77245 6.308424 7.380381 -20.26453 -3.805364 -81.99404 25.4061 2.332119 -5.35108e-08 1.379266e-07 -24.56341 4.020155 11.66563 8.27884
41.76793 105.0736 299.8017 1.799202 -6.101817 8.438846 2.420421 -25.64503 3.334485 3.505845e-06 19.4326 -2.049824e-06 -0.7445127 -9.294783 -9.041707 -5.006436 19.34608 -11.72506 5.810514e-07 18.53462 3.266929e-07 -4.772908 -20.55733 16.38915 -2.303085 0.718986 1.886376 1.131049 7.551089 -6.908624 3.168189 23.97299 5.067992 1.210376 -16.1368 9.303628 1.79942 -12.44738 8.794413 89.71584 25.85872 -20.73379 2.806755e-07 1.806597e-07 7.530299 -16.31287 11.60756 6.059274 7.326123 -20.39516 -3.869041 -82.25047 25.549 1.800368 -3.202913e-08 1.30632e-07 -24.61154 4.263353 11.82344 8.065952
42.11208 104.5257 305.2629 1.794737 -6.590145 8.49458 2.763404 -24.52223 3.622687 3.55791e-06 21.79205 -2.224996e-06 -1.334983 -8.416691 -9.086145 -5.111042 19.12299 -11.78782 2.250782e-07 24.25885 2.242178e-07 -5.183152 -19.36728 16.37659 -2.113111 0.7946272 1.892392 1.068239 7.737466 -6.750449 3.24587 24.24222 4.996496 1.284984 -16.1925 9.27449 1.930882 -12.14911 8.89079 90.13238 25.82028 -20.89344 3.344216e-07 1.46972e-07 6.840258 -15.96792 11.39381 5.690458 6.978803 -20.23592 -3.959007 -82.75535 25.75954 2.192752 -3.063197e-08 1.164713e-07 -23.64267 4.347634 12.01283 8.062714
42.42443 104.5155 310.7364 1.77237 -7.250594 8.440196 3.268889 -21.87208 4.137059 3.503683e-06 24.37151 -2.361394e-06 -2.059914 -7.99206 -9.033907 -5.089252 17.55466 -11.77305 -2.629782e-07 31.65158 1.009105e-07 -5.710494 -17.47742 16.57137 -1.82685 0.8878428 2.117496 0.9530544 8.013643 -6.447785 3.3465 24.57811 4.842311 1.34634 -16.27752 9.195352 2.074551 -12.08862 9.07318 90.47495 25.78896 -20.67462 3.911987e-07 1.097577e-07 6.560464 -15.62773 11.19477 5.372615 6.460964 -19.89016 -4.012337 -83.91112 26.07347 3.496963 -4.012262e-08 9.478282e-08 -21.96401 4.286107 12.22765 8.288824
42.67706 104.9661 316.0661 1.678842 -8.001825 8.189719 3.89649 -17.95025 4.792501 3.469927e-06 25.99509 -2.507946e-06 -3.105837 -8.912284 -8.86034 -4.819219 14.82003 -11.96066 -8.329741e-07 38.71802 -2.238245e-08 -6.103817 -15.20886 17.13221 -1.456552 1.013794 2.457019 0.8174535 8.135837 -5.944284 3.510812 24.89027 4.501766 1.30413 -16.23124 9.064863 2.071285 -12.25419 9.198097 90.03173 25.61978 -19.67511 4.552835e-07 8.285556e-08 6.861175 -14.78357 10.71255 4.872908 5.880037 -19.17837 -3.916233 -85.22228 26.52062 5.471028 -6.783603e-08 6.967126e-08 -19.37877 4.13555 12.69848 8.486602
42.87813 105.7381 321.239 1.525299 -8.588049 7.718213 4.409548 -13.35129 5.241404 3.33859e-06 26.21539 -2.547873e-06 -4.22361 -10.43918 -8.484488 -4.410453 11.10038 -12.03877 -1.323901e-06 44.27402 -1.208442e-07 -6.422517 -12.98227 17.83325 -1.100223 1.143011 2.907435 0.675621 8.174212 -5.362937 3.649313 25.15363 4.136931 1.254709 -16.22053 8.880454 1.96343 -12.67938 9.312754 89.22237 25.50962 -18.21256 4.986681e-07 5.797834e-08 7.599931 -14.06932 10.17598 4.589625 5.374304 -18.40119 -3.724469 -86.70682 26.8645 7.841072 -9.064124e-08 4.173911e-08 -16.65549 3.983893 13.20499 8.649695
43.07424 106.7157 326.3702 1.350381 -8.885246 7.059725 4.683513 -8.339295 5.340804 3.004826e-06 25.54594 -2.410858e-06 -5.203419 -11.73747 -7.834693 -3.974427 6.492834 -11.8036 -1.650772e-06 48.1755 -2.020556e-07 -6.739398 -10.97528 18.53235 -0.8333314 1.246035 3.491146 0.5171983 8.253741 -4.789877 3.692354 25.40023 3.897182 1.296589 -16.42193 8.65477 1.85596 -13.39034 9.494259 88.54778 25.66781 -16.59423 5.047677e-07 2.236791e-08 8.635627 -14.0148 9.80811 4.830431 4.980271 -17.77561 -3.506698 -88.58564 26.96793 10.56116 -9.116981e-08 1.103117e-08 -14.24476 3.858137 13.5573 8.880428
43.28436 107.6039 331.3818 1.154663 -8.865596 6.256306 4.708819 -3.67121 5.141186 2.670905e-06 23.74616 -2.218686e-06 -6.152548 -13.46537 -6.981927 -3.488725 1.839397 -11.71244 -1.701098e-06 47.69679 -3.44579e-07 -6.587248 -9.712844 19.35199 -0.7093185 1.288211 4.006579 0.3747141 8.141153 -4.207613 3.686366 25.47239 3.679925 1.313537 -16.59712 8.415374 1.589968 -14.32388 9.552022 87.18865 25.77013 -14.47026 4.822602e-07 -6.023045e-09 10.1032 -13.96325 9.256629 5.245114 4.79233 -17.09534 -3.200641 -90.0063 26.90718 13.18046 -8.446313e-08 -1.42125e-08 -11.90755 3.839178 14.02227 8.846243
